<mxfile host="app.diagrams.net" modified="2023-11-14T18:05:54.693Z" agent="Mozilla/5.0 (Windows NT 10.0; Win64; x64) AppleWebKit/537.36 (KHTML, like Gecko) Chrome/119.0.0.0 Safari/537.36" etag="iBLK7dHxwS58acjnXqdj" version="22.1.0" type="device">
  <diagram name="Page-1" id="c4acf3e9-155e-7222-9cf6-157b1a14988f">
    <mxGraphModel dx="1839" dy="1630" grid="1" gridSize="10" guides="1" tooltips="1" connect="1" arrows="1" fold="1" page="1" pageScale="1" pageWidth="850" pageHeight="1100" background="none" math="0" shadow="0">
      <root>
        <mxCell id="0" />
        <mxCell id="1" parent="0" />
        <mxCell id="17acba5748e5396b-1" value="frame" style="shape=umlFrame;whiteSpace=wrap;html=1;rounded=0;shadow=0;comic=0;labelBackgroundColor=none;strokeWidth=1;fontFamily=Verdana;fontSize=10;align=center;" parent="1" vertex="1">
          <mxGeometry x="-8" y="-1090" width="820" height="430" as="geometry" />
        </mxCell>
        <mxCell id="17acba5748e5396b-20" value="User" style="swimlane;html=1;fontStyle=0;childLayout=stackLayout;horizontal=1;startSize=26;fillColor=none;horizontalStack=0;resizeParent=1;resizeLast=0;collapsible=1;marginBottom=0;swimlaneFillColor=#ffffff;rounded=0;shadow=0;comic=0;labelBackgroundColor=none;strokeWidth=1;fontFamily=Verdana;fontSize=10;align=center;" parent="1" vertex="1">
          <mxGeometry x="50" y="-1040" width="200" height="230" as="geometry">
            <mxRectangle x="100" y="-964" width="60" height="30" as="alternateBounds" />
          </mxGeometry>
        </mxCell>
        <mxCell id="17acba5748e5396b-21" value="- idUser: Long" style="text;html=1;strokeColor=none;fillColor=none;align=left;verticalAlign=top;spacingLeft=4;spacingRight=4;whiteSpace=wrap;overflow=hidden;rotatable=0;points=[[0,0.5],[1,0.5]];portConstraint=eastwest;" parent="17acba5748e5396b-20" vertex="1">
          <mxGeometry y="26" width="200" height="24" as="geometry" />
        </mxCell>
        <mxCell id="17acba5748e5396b-24" value="- userName: String" style="text;html=1;strokeColor=none;fillColor=none;align=left;verticalAlign=top;spacingLeft=4;spacingRight=4;whiteSpace=wrap;overflow=hidden;rotatable=0;points=[[0,0.5],[1,0.5]];portConstraint=eastwest;" parent="17acba5748e5396b-20" vertex="1">
          <mxGeometry y="50" width="200" height="20" as="geometry" />
        </mxCell>
        <mxCell id="17acba5748e5396b-26" value="- password: String" style="text;html=1;strokeColor=none;fillColor=none;align=left;verticalAlign=top;spacingLeft=4;spacingRight=4;whiteSpace=wrap;overflow=hidden;rotatable=0;points=[[0,0.5],[1,0.5]];portConstraint=eastwest;" parent="17acba5748e5396b-20" vertex="1">
          <mxGeometry y="70" width="200" height="20" as="geometry" />
        </mxCell>
        <mxCell id="4chRYUEGll0Ycb_mYMR8-1" value="- email: String" style="text;html=1;strokeColor=none;fillColor=none;align=left;verticalAlign=top;spacingLeft=4;spacingRight=4;whiteSpace=wrap;overflow=hidden;rotatable=0;points=[[0,0.5],[1,0.5]];portConstraint=eastwest;" parent="17acba5748e5396b-20" vertex="1">
          <mxGeometry y="90" width="200" height="20" as="geometry" />
        </mxCell>
        <mxCell id="4chRYUEGll0Ycb_mYMR8-3" value="- dni: String" style="text;html=1;strokeColor=none;fillColor=none;align=left;verticalAlign=top;spacingLeft=4;spacingRight=4;whiteSpace=wrap;overflow=hidden;rotatable=0;points=[[0,0.5],[1,0.5]];portConstraint=eastwest;" parent="17acba5748e5396b-20" vertex="1">
          <mxGeometry y="110" width="200" height="20" as="geometry" />
        </mxCell>
        <mxCell id="4chRYUEGll0Ycb_mYMR8-9" value="" style="endArrow=none;html=1;rounded=0;exitX=0.008;exitY=0.669;exitDx=0;exitDy=0;exitPerimeter=0;" parent="17acba5748e5396b-20" edge="1">
          <mxGeometry width="50" height="50" relative="1" as="geometry">
            <mxPoint x="200.32000000000005" y="200.06999999999994" as="sourcePoint" />
            <mxPoint y="200" as="targetPoint" />
            <Array as="points">
              <mxPoint x="80" y="200" />
            </Array>
          </mxGeometry>
        </mxCell>
        <mxCell id="17acba5748e5396b-30" value="Account" style="swimlane;html=1;fontStyle=0;childLayout=stackLayout;horizontal=1;startSize=26;fillColor=none;horizontalStack=0;resizeParent=1;resizeLast=0;collapsible=1;marginBottom=0;swimlaneFillColor=#ffffff;rounded=0;shadow=0;comic=0;labelBackgroundColor=none;strokeWidth=1;fontFamily=Verdana;fontSize=10;align=center;" parent="1" vertex="1">
          <mxGeometry x="380" y="-1040" width="160" height="190" as="geometry" />
        </mxCell>
        <mxCell id="17acba5748e5396b-31" value="- idAccount: Long" style="text;html=1;strokeColor=none;fillColor=none;align=left;verticalAlign=top;spacingLeft=4;spacingRight=4;whiteSpace=wrap;overflow=hidden;rotatable=0;points=[[0,0.5],[1,0.5]];portConstraint=eastwest;" parent="17acba5748e5396b-30" vertex="1">
          <mxGeometry y="26" width="160" height="24" as="geometry" />
        </mxCell>
        <mxCell id="17acba5748e5396b-32" value="- accountNumber: String" style="text;html=1;strokeColor=none;fillColor=none;align=left;verticalAlign=top;spacingLeft=4;spacingRight=4;whiteSpace=wrap;overflow=hidden;rotatable=0;points=[[0,0.5],[1,0.5]];portConstraint=eastwest;" parent="17acba5748e5396b-30" vertex="1">
          <mxGeometry y="50" width="160" height="20" as="geometry" />
        </mxCell>
        <mxCell id="17acba5748e5396b-33" value="- cbu: String" style="text;html=1;strokeColor=none;fillColor=none;align=left;verticalAlign=top;spacingLeft=4;spacingRight=4;whiteSpace=wrap;overflow=hidden;rotatable=0;points=[[0,0.5],[1,0.5]];portConstraint=eastwest;" parent="17acba5748e5396b-30" vertex="1">
          <mxGeometry y="70" width="160" height="20" as="geometry" />
        </mxCell>
        <mxCell id="lUCE5cpg9mAliuVy_0zK-5" value="" style="endArrow=none;html=1;rounded=0;" edge="1" parent="17acba5748e5396b-30">
          <mxGeometry width="50" height="50" relative="1" as="geometry">
            <mxPoint y="170" as="sourcePoint" />
            <mxPoint x="160" y="170" as="targetPoint" />
          </mxGeometry>
        </mxCell>
        <mxCell id="5d2195bd80daf111-5" value="Transfer" style="swimlane;html=1;fontStyle=0;childLayout=stackLayout;horizontal=1;startSize=26;fillColor=none;horizontalStack=0;resizeParent=1;resizeLast=0;collapsible=1;marginBottom=0;swimlaneFillColor=#ffffff;rounded=0;shadow=0;comic=0;labelBackgroundColor=none;strokeWidth=1;fontFamily=Verdana;fontSize=10;align=center;" parent="1" vertex="1">
          <mxGeometry x="617" y="-895" width="160" height="180" as="geometry" />
        </mxCell>
        <mxCell id="5d2195bd80daf111-6" value="- idTransfer: Long" style="text;html=1;strokeColor=none;fillColor=none;align=left;verticalAlign=top;spacingLeft=4;spacingRight=4;whiteSpace=wrap;overflow=hidden;rotatable=0;points=[[0,0.5],[1,0.5]];portConstraint=eastwest;" parent="5d2195bd80daf111-5" vertex="1">
          <mxGeometry y="26" width="160" height="26" as="geometry" />
        </mxCell>
        <mxCell id="5d2195bd80daf111-7" value="- idSenderAccount: Long" style="text;html=1;strokeColor=none;fillColor=none;align=left;verticalAlign=top;spacingLeft=4;spacingRight=4;whiteSpace=wrap;overflow=hidden;rotatable=0;points=[[0,0.5],[1,0.5]];portConstraint=eastwest;" parent="5d2195bd80daf111-5" vertex="1">
          <mxGeometry y="52" width="160" height="26" as="geometry" />
        </mxCell>
        <mxCell id="4chRYUEGll0Ycb_mYMR8-5" value="- idRecipientAccount: Long" style="text;html=1;strokeColor=none;fillColor=none;align=left;verticalAlign=top;spacingLeft=4;spacingRight=4;whiteSpace=wrap;overflow=hidden;rotatable=0;points=[[0,0.5],[1,0.5]];portConstraint=eastwest;" parent="5d2195bd80daf111-5" vertex="1">
          <mxGeometry y="78" width="160" height="26" as="geometry" />
        </mxCell>
        <mxCell id="4chRYUEGll0Ycb_mYMR8-6" value="- transferAmount: float" style="text;html=1;strokeColor=none;fillColor=none;align=left;verticalAlign=top;spacingLeft=4;spacingRight=4;whiteSpace=wrap;overflow=hidden;rotatable=0;points=[[0,0.5],[1,0.5]];portConstraint=eastwest;" parent="5d2195bd80daf111-5" vertex="1">
          <mxGeometry y="104" width="160" height="26" as="geometry" />
        </mxCell>
        <mxCell id="YG_fV4srt6WYNvSH8qxu-1" value="1" style="text;html=1;strokeColor=none;fillColor=none;align=center;verticalAlign=middle;whiteSpace=wrap;rounded=0;" parent="1" vertex="1">
          <mxGeometry x="240" y="-881" width="40" height="30" as="geometry" />
        </mxCell>
        <mxCell id="YG_fV4srt6WYNvSH8qxu-2" value="N" style="text;html=1;strokeColor=none;fillColor=none;align=center;verticalAlign=middle;whiteSpace=wrap;rounded=0;" parent="1" vertex="1">
          <mxGeometry x="350" y="-1000" width="40" height="30" as="geometry" />
        </mxCell>
        <mxCell id="YG_fV4srt6WYNvSH8qxu-3" style="edgeStyle=orthogonalEdgeStyle;rounded=0;orthogonalLoop=1;jettySize=auto;html=1;exitX=1;exitY=0.5;exitDx=0;exitDy=0;entryX=0;entryY=0.5;entryDx=0;entryDy=0;" parent="1" source="17acba5748e5396b-33" target="5d2195bd80daf111-7" edge="1">
          <mxGeometry relative="1" as="geometry">
            <mxPoint x="260" y="-815" as="sourcePoint" />
            <mxPoint x="390" y="-1017" as="targetPoint" />
          </mxGeometry>
        </mxCell>
        <mxCell id="YG_fV4srt6WYNvSH8qxu-4" value="1" style="text;html=1;strokeColor=none;fillColor=none;align=center;verticalAlign=middle;whiteSpace=wrap;rounded=0;" parent="1" vertex="1">
          <mxGeometry x="537" y="-950" width="40" height="30" as="geometry" />
        </mxCell>
        <mxCell id="YG_fV4srt6WYNvSH8qxu-5" value="N" style="text;html=1;strokeColor=none;fillColor=none;align=center;verticalAlign=middle;whiteSpace=wrap;rounded=0;" parent="1" vertex="1">
          <mxGeometry x="577" y="-830" width="40" height="30" as="geometry" />
        </mxCell>
        <mxCell id="YG_fV4srt6WYNvSH8qxu-6" value="- date: dateTime" style="text;html=1;strokeColor=none;fillColor=none;align=left;verticalAlign=top;spacingLeft=4;spacingRight=4;whiteSpace=wrap;overflow=hidden;rotatable=0;points=[[0,0.5],[1,0.5]];portConstraint=eastwest;" parent="1" vertex="1">
          <mxGeometry x="618" y="-767" width="160" height="26" as="geometry" />
        </mxCell>
        <mxCell id="lUCE5cpg9mAliuVy_0zK-1" value="- birthDate: LocalDate" style="text;html=1;strokeColor=none;fillColor=none;align=left;verticalAlign=top;spacingLeft=4;spacingRight=4;whiteSpace=wrap;overflow=hidden;rotatable=0;points=[[0,0.5],[1,0.5]];portConstraint=eastwest;" vertex="1" parent="1">
          <mxGeometry x="50" y="-910" width="200" height="20" as="geometry" />
        </mxCell>
        <mxCell id="lUCE5cpg9mAliuVy_0zK-2" value="- address: String" style="text;html=1;strokeColor=none;fillColor=none;align=left;verticalAlign=top;spacingLeft=4;spacingRight=4;whiteSpace=wrap;overflow=hidden;rotatable=0;points=[[0,0.5],[1,0.5]];portConstraint=eastwest;" vertex="1" parent="1">
          <mxGeometry x="50" y="-891" width="200" height="20" as="geometry" />
        </mxCell>
        <mxCell id="lUCE5cpg9mAliuVy_0zK-3" value="- accounts: List&amp;lt;Account&amp;gt;" style="text;html=1;strokeColor=none;fillColor=none;align=left;verticalAlign=top;spacingLeft=4;spacingRight=4;whiteSpace=wrap;overflow=hidden;rotatable=0;points=[[0,0.5],[1,0.5]];portConstraint=eastwest;" vertex="1" parent="1">
          <mxGeometry x="50" y="-871" width="200" height="20" as="geometry" />
        </mxCell>
        <mxCell id="lUCE5cpg9mAliuVy_0zK-7" value="- balance: float" style="text;html=1;strokeColor=none;fillColor=none;align=left;verticalAlign=top;spacingLeft=4;spacingRight=4;whiteSpace=wrap;overflow=hidden;rotatable=0;points=[[0,0.5],[1,0.5]];portConstraint=eastwest;" vertex="1" parent="1">
          <mxGeometry x="381" y="-930" width="160" height="20" as="geometry" />
        </mxCell>
        <mxCell id="lUCE5cpg9mAliuVy_0zK-8" value="- user: User" style="text;html=1;strokeColor=none;fillColor=none;align=left;verticalAlign=top;spacingLeft=4;spacingRight=4;whiteSpace=wrap;overflow=hidden;rotatable=0;points=[[0,0.5],[1,0.5]];portConstraint=eastwest;" vertex="1" parent="1">
          <mxGeometry x="381" y="-910" width="160" height="20" as="geometry" />
        </mxCell>
        <mxCell id="lUCE5cpg9mAliuVy_0zK-16" value="" style="endArrow=classic;html=1;rounded=0;entryX=0.75;entryY=0;entryDx=0;entryDy=0;exitX=1;exitY=0.5;exitDx=0;exitDy=0;" edge="1" parent="1" source="lUCE5cpg9mAliuVy_0zK-3" target="YG_fV4srt6WYNvSH8qxu-2">
          <mxGeometry width="50" height="50" relative="1" as="geometry">
            <mxPoint x="240" y="-860" as="sourcePoint" />
            <mxPoint x="290" y="-910" as="targetPoint" />
            <Array as="points">
              <mxPoint x="310" y="-861" />
              <mxPoint x="310" y="-1000" />
            </Array>
          </mxGeometry>
        </mxCell>
        <mxCell id="lUCE5cpg9mAliuVy_0zK-17" value="- alias: String" style="text;html=1;strokeColor=none;fillColor=none;align=left;verticalAlign=top;spacingLeft=4;spacingRight=4;whiteSpace=wrap;overflow=hidden;rotatable=0;points=[[0,0.5],[1,0.5]];portConstraint=eastwest;" vertex="1" parent="1">
          <mxGeometry x="380" y="-950" width="160" height="20" as="geometry" />
        </mxCell>
      </root>
    </mxGraphModel>
  </diagram>
</mxfile>
